<svg width="20" height="20" viewBox="0 0 20 20" fill="none" xmlns="http://www.w3.org/2000/svg">
<path d="M15 7.50027C14.8053 7.49989 14.6166 7.5677 14.4667 7.69194L10 11.4253L5.52501 7.82527C5.43977 7.75605 5.34169 7.70436 5.23641 7.67316C5.13113 7.64197 5.02072 7.63189 4.91153 7.64351C4.80234 7.65512 4.69652 7.6882 4.60016 7.74085C4.50379 7.79349 4.41878 7.86466 4.35001 7.95027C4.28079 8.03551 4.2291 8.13359 4.19791 8.23887C4.16671 8.34416 4.15663 8.45456 4.16825 8.56376C4.17987 8.67295 4.21295 8.77876 4.26559 8.87513C4.31824 8.97149 4.38941 9.0565 4.47501 9.12527L9.47501 13.1503C9.62412 13.2728 9.81116 13.3398 10.0042 13.3398C10.1972 13.3398 10.3842 13.2728 10.5333 13.1503L15.5333 8.9836C15.6177 8.91365 15.6875 8.82773 15.7386 8.73077C15.7897 8.63382 15.8212 8.52773 15.8313 8.41858C15.8414 8.30943 15.8298 8.19937 15.7973 8.0947C15.7647 7.99003 15.7118 7.89281 15.6417 7.8086C15.5641 7.71301 15.4664 7.63578 15.3554 7.58247C15.2445 7.52916 15.1231 7.50108 15 7.50027Z" fill="white"/>
</svg>
