<svg width="17" height="19" fill="none" xmlns="http://www.w3.org/2000/svg"><path d="M12.265 4.202c-1.225-1.865-3.246-2.915-5.52-2.915-2.254 0-4.275 1.05-5.539 2.915-1.263 1.827-1.555 4.16-.777 6.2a5.85 5.85 0 00.972 1.613l4.917 5.792c.116.117.233.194.408.194.175 0 .291-.077.408-.194l4.936-5.792c.428-.505.778-1.05.972-1.613.778-2.04.486-4.373-.777-6.2zm-5.52 6.88a3.07 3.07 0 01-3.051-3.05A3.07 3.07 0 016.745 4.98 3.07 3.07 0 019.797 8.03a3.057 3.057 0 01-3.052 3.051z" fill="#fff"/><circle cx="13.164" cy="3.214" r="3.214" fill="#86BFE5"/><circle cx="13.164" cy="3.216" r="1.929" fill="#020303"/></svg>