<svg width="18" height="18" viewBox="0 0 18 18" fill="none" xmlns="http://www.w3.org/2000/svg">
<path d="M7.61 10.3201C8.65374 11.3789 9.91664 12.1964 11.31 12.7151L13.195 11.2151C13.2509 11.1766 13.3171 11.156 13.385 11.156C13.4529 11.156 13.5191 11.1766 13.575 11.2151L17.075 13.4701C17.2079 13.55 17.3204 13.6597 17.4036 13.7905C17.4867 13.9213 17.5384 14.0697 17.5544 14.2239C17.5704 14.3781 17.5503 14.534 17.4958 14.6791C17.4412 14.8242 17.3536 14.9546 17.24 15.0601L15.6 16.6801C15.3651 16.9122 15.0765 17.0825 14.7598 17.1758C14.4431 17.2692 14.1082 17.2827 13.785 17.2151C10.5611 16.5493 7.58957 14.9899 5.21 12.7151C2.88324 10.4177 1.27313 7.49454 0.574997 4.30011C0.50603 3.98193 0.520425 3.65133 0.616785 3.34035C0.713146 3.02937 0.888205 2.74855 1.125 2.52511L2.825 0.885114C2.9302 0.777007 3.05849 0.694101 3.20027 0.642603C3.34205 0.591104 3.49365 0.572348 3.6437 0.587738C3.79376 0.603129 3.93839 0.652267 4.06677 0.731474C4.19514 0.810681 4.30393 0.917903 4.385 1.04511L6.715 4.50011C6.75519 4.55437 6.77688 4.6201 6.77688 4.68761C6.77688 4.75513 6.75519 4.82086 6.715 4.87511L5.18 6.72011C5.71279 8.08558 6.54286 9.31532 7.61 10.3201Z" fill="white"/>
</svg>
