<svg width="17" height="18" viewBox="0 0 17 18" fill="none" xmlns="http://www.w3.org/2000/svg">
<path d="M12.2649 4.20044C11.0405 2.33466 9.0192 1.28516 6.74528 1.28516C4.49079 1.28516 2.46953 2.33466 1.20624 4.20044C-0.0570468 6.02735 -0.348575 8.35957 0.428833 10.4003C0.642621 10.9445 0.973019 11.5081 1.40059 12.0134L6.3177 17.8051C6.43431 17.9217 6.55093 17.9994 6.72584 17.9994C6.90076 17.9994 7.01737 17.9217 7.13398 17.8051L12.0705 12.0134C12.4981 11.5081 12.8479 10.9639 13.0423 10.4003C13.8197 8.35957 13.5282 6.02735 12.2649 4.20044ZM6.74528 11.0805C5.07385 11.0805 3.69395 9.7006 3.69395 8.02918C3.69395 6.35775 5.07385 4.97785 6.74528 4.97785C8.41671 4.97785 9.79661 6.35775 9.79661 8.02918C9.79661 9.7006 8.43614 11.0805 6.74528 11.0805Z" fill="white"/>
<circle cx="13.1641" cy="3.21429" r="3.21429" fill="#2D2A2A"/>
<circle cx="13.1642" cy="3.21373" r="1.92857" fill="white"/>
</svg>
