<svg width="17" height="18" fill="none" xmlns="http://www.w3.org/2000/svg"><path d="M12.265 4.2c-1.225-1.865-3.246-2.915-5.52-2.915-2.254 0-4.275 1.05-5.539 2.915C-.057 6.027-.349 8.36.43 10.4a5.85 5.85 0 00.972 1.613l4.917 5.792c.116.117.233.194.408.194.175 0 .291-.077.408-.194l4.936-5.792c.428-.505.778-1.05.972-1.613.778-2.04.486-4.373-.777-6.2zm-5.52 6.88a3.07 3.07 0 01-3.051-3.05 3.07 3.07 0 013.051-3.052 3.07 3.07 0 013.052 3.051 3.057 3.057 0 01-3.052 3.052z" fill="#fff"/><circle cx="13.164" cy="3.214" r="3.214" fill="#2D2A2A"/><circle cx="13.164" cy="3.214" r="1.929" fill="#fff"/></svg>