<svg width="20" height="20" fill="none" xmlns="http://www.w3.org/2000/svg"><path d="M10 1.667A8.336 8.336 0 001.667 10c0 4.6 3.733 8.333 8.333 8.333h4.167v-1.666H10c-3.617 0-6.667-3.05-6.667-6.667S6.383 3.333 10 3.333s6.667 3.05 6.667 6.667v1.191c0 .659-.592 1.309-1.25 1.309-.659 0-1.25-.65-1.25-1.309V10c0-2.3-1.867-4.167-4.167-4.167A4.168 4.168 0 005.833 10a4.168 4.168 0 007.117 2.941c.542.742 1.475 1.225 2.467 1.225 1.641 0 2.916-1.333 2.916-2.975V10c0-4.6-3.733-8.333-8.333-8.333zM10 12.5A2.497 2.497 0 017.5 10c0-1.383 1.117-2.5 2.5-2.5s2.5 1.117 2.5 2.5-1.117 2.5-2.5 2.5z" fill="#fff"/></svg>