<svg width="26" height="28" fill="none" xmlns="http://www.w3.org/2000/svg"><path d="M19.601 6.535C17.697 3.633 14.552 2 11.015 2 7.508 2 4.364 3.633 2.4 6.535c-1.965 2.842-2.419 6.47-1.21 9.644a9.102 9.102 0 001.512 2.51l7.649 9.009c.181.181.363.302.635.302s.453-.12.635-.302l7.679-9.01c.665-.786 1.21-1.632 1.512-2.509 1.209-3.174.755-6.802-1.21-9.644zm-8.586 10.702c-2.6 0-4.746-2.146-4.746-4.746 0-2.6 2.146-4.747 4.746-4.747 2.6 0 4.747 2.147 4.747 4.747s-2.117 4.746-4.747 4.746z" fill="#fff"/><circle cx="21" cy="5" r="5" fill="#56A1D4"/><circle cx="21" cy="5" r="3" fill="#020303"/></svg>