<svg width="19" height="19" viewBox="0 0 19 19" fill="none" xmlns="http://www.w3.org/2000/svg">
<path d="M10.6162 9.50007L14.0204 6.10382C14.1694 5.95474 14.2532 5.75255 14.2532 5.54173C14.2532 5.33091 14.1694 5.12872 14.0204 4.97965C13.8713 4.83058 13.6691 4.74683 13.4583 4.74683C13.2475 4.74683 13.0453 4.83058 12.8962 4.97965L9.49995 8.38382L6.1037 4.97965C5.95463 4.83058 5.75244 4.74683 5.54162 4.74683C5.3308 4.74683 5.12861 4.83058 4.97954 4.97965C4.83046 5.12872 4.74671 5.33091 4.74671 5.54173C4.74671 5.75255 4.83046 5.95474 4.97954 6.10382L8.3837 9.50007L4.97954 12.8963C4.90533 12.9699 4.84644 13.0575 4.80625 13.1539C4.76605 13.2504 4.74536 13.3539 4.74536 13.4584C4.74536 13.5629 4.76605 13.6664 4.80625 13.7629C4.84644 13.8593 4.90533 13.9469 4.97954 14.0205C5.05313 14.0947 5.14069 14.1536 5.23716 14.1938C5.33363 14.234 5.43711 14.2547 5.54162 14.2547C5.64613 14.2547 5.7496 14.234 5.84608 14.1938C5.94255 14.1536 6.03011 14.0947 6.1037 14.0205L9.49995 10.6163L12.8962 14.0205C12.9698 14.0947 13.0574 14.1536 13.1538 14.1938C13.2503 14.234 13.3538 14.2547 13.4583 14.2547C13.5628 14.2547 13.6663 14.234 13.7627 14.1938C13.8592 14.1536 13.9468 14.0947 14.0204 14.0205C14.0946 13.9469 14.1535 13.8593 14.1937 13.7629C14.2339 13.6664 14.2545 13.5629 14.2545 13.4584C14.2545 13.3539 14.2339 13.2504 14.1937 13.1539C14.1535 13.0575 14.0946 12.9699 14.0204 12.8963L10.6162 9.50007Z" fill="#EA0000"/>
</svg>
